# xmcd CD database file
#
# Track frame offsets:
#	150
#	16085
#	27747
#	41962
#	55210
#	70682
#	107225
#	123752
#	142600
#	152453
#	170340
#	184302
#	203525
#	216992
#	224632
#	238756
#	250646
#	269295
#
# Disc length: 3774 seconds
#
# Revision: 0
# Processed by: cddbd v1.5.2PL0 Copyright (c) Steve Scherf et al.
# Submitted via: CDex 1.51
#
DISCID=010ebc12
DTITLE=Ahmad Jamal - But Not For Me - Ahmad Jamal Trio Live at the Pershing and Jamal at the Penthouse
DYEAR=1900
DGENRE=Jazz
TTITLE0=But not for me
TTITLE1=Surrey with the fringe on top
TTITLE2=Moonlight in Vermont
TTITLE3=(put another nickel in) Music Music Music
TTITLE4=No Greater Love
TTITLE5=Poinciana
TTITLE6=Woody N' You
TTITLE7=What's New
TTITLE8=Comme Ci, Comme Ca
TTITLE9=Ivy
TTITLE10=Never Never Land
TTITLE11=Tangerine
TTITLE12=Ahmads Blues
TTITLE13=Seleritus
TTITLE14=I like to Recognize the Tune
TTITLE15=I'm Alone With You
TTITLE16=Sophisticated Gentleman
TTITLE17=Poinciana (Single Version)
EXTD=
EXTT0=
EXTT1=
EXTT2=
EXTT3=
EXTT4=
EXTT5=
EXTT6=
EXTT7=
EXTT8=
EXTT9=
EXTT10=
EXTT11=
EXTT12=
EXTT13=
EXTT14=
EXTT15=
EXTT16=
EXTT17=
PLAYORDER=
